<mxfile host="app.diagrams.net" agent="Mozilla/5.0 (Windows NT 10.0; Win64; x64) AppleWebKit/537.36 (KHTML, like Gecko) Chrome/133.0.0.0 Safari/537.36" version="25.0.3">
  <diagram name="페이지-1" id="qfISxrqDR2M07l2lMW0i">
    <mxGraphModel dx="2420" dy="2027" grid="1" gridSize="10" guides="1" tooltips="1" connect="1" arrows="1" fold="1" page="1" pageScale="1" pageWidth="827" pageHeight="1169" math="0" shadow="0">
      <root>
        <mxCell id="0" />
        <mxCell id="1" parent="0" />
        <mxCell id="ExVyS3KjKUSaasKRGWtf-8" value="" style="html=1;whiteSpace=wrap;" vertex="1" parent="1">
          <mxGeometry x="110" y="330" width="500" height="360" as="geometry" />
        </mxCell>
        <mxCell id="ExVyS3KjKUSaasKRGWtf-26" value="" style="rounded=1;whiteSpace=wrap;html=1;fillColor=#dae8fc;strokeColor=#6c8ebf;" vertex="1" parent="1">
          <mxGeometry x="130" y="340" width="470" height="90" as="geometry" />
        </mxCell>
        <mxCell id="ExVyS3KjKUSaasKRGWtf-15" value="" style="rounded=1;whiteSpace=wrap;html=1;" vertex="1" parent="1">
          <mxGeometry x="130" y="-110" width="180" height="310" as="geometry" />
        </mxCell>
        <mxCell id="ExVyS3KjKUSaasKRGWtf-1" value="Data" style="rounded=0;whiteSpace=wrap;html=1;" vertex="1" parent="1">
          <mxGeometry x="160" y="-80" width="120" height="40" as="geometry" />
        </mxCell>
        <mxCell id="ExVyS3KjKUSaasKRGWtf-2" value="LLM" style="rounded=0;whiteSpace=wrap;html=1;" vertex="1" parent="1">
          <mxGeometry x="160" y="20" width="120" height="60" as="geometry" />
        </mxCell>
        <mxCell id="ExVyS3KjKUSaasKRGWtf-5" value="" style="shape=flexArrow;endArrow=classic;html=1;rounded=0;exitX=0.5;exitY=1;exitDx=0;exitDy=0;entryX=0.5;entryY=0;entryDx=0;entryDy=0;" edge="1" parent="1" source="ExVyS3KjKUSaasKRGWtf-1" target="ExVyS3KjKUSaasKRGWtf-2">
          <mxGeometry width="50" height="50" relative="1" as="geometry">
            <mxPoint x="290" y="340" as="sourcePoint" />
            <mxPoint x="340" y="290" as="targetPoint" />
          </mxGeometry>
        </mxCell>
        <mxCell id="ExVyS3KjKUSaasKRGWtf-6" value="" style="shape=flexArrow;endArrow=classic;html=1;rounded=0;exitX=0.5;exitY=1;exitDx=0;exitDy=0;entryX=0.5;entryY=0;entryDx=0;entryDy=0;" edge="1" parent="1" source="ExVyS3KjKUSaasKRGWtf-2">
          <mxGeometry width="50" height="50" relative="1" as="geometry">
            <mxPoint x="290" y="340" as="sourcePoint" />
            <mxPoint x="220" y="120.00000000000023" as="targetPoint" />
          </mxGeometry>
        </mxCell>
        <mxCell id="ExVyS3KjKUSaasKRGWtf-9" value="App" style="text;align=center;fontStyle=1;verticalAlign=middle;spacingLeft=3;spacingRight=3;strokeColor=none;rotatable=0;points=[[0,0.5],[1,0.5]];portConstraint=eastwest;html=1;" vertex="1" parent="1">
          <mxGeometry x="110" y="304" width="80" height="26" as="geometry" />
        </mxCell>
        <mxCell id="ExVyS3KjKUSaasKRGWtf-10" value="" style="shape=flexArrow;endArrow=classic;html=1;rounded=0;exitX=0.5;exitY=1;exitDx=0;exitDy=0;" edge="1" parent="1" source="ExVyS3KjKUSaasKRGWtf-17" target="ExVyS3KjKUSaasKRGWtf-20">
          <mxGeometry width="50" height="50" relative="1" as="geometry">
            <mxPoint x="213.03999999999996" y="178.86000000000013" as="sourcePoint" />
            <mxPoint x="510" y="190" as="targetPoint" />
          </mxGeometry>
        </mxCell>
        <mxCell id="ExVyS3KjKUSaasKRGWtf-11" value="직접 포함시키는 방법" style="text;align=center;fontStyle=1;verticalAlign=middle;spacingLeft=3;spacingRight=3;strokeColor=none;rotatable=0;points=[[0,0.5],[1,0.5]];portConstraint=eastwest;html=1;" vertex="1" parent="1">
          <mxGeometry x="230" y="224" width="130" height="26" as="geometry" />
        </mxCell>
        <mxCell id="ExVyS3KjKUSaasKRGWtf-13" value="cloud" style="ellipse;shape=cloud;whiteSpace=wrap;html=1;" vertex="1" parent="1">
          <mxGeometry x="420" y="100" width="120" height="80" as="geometry" />
        </mxCell>
        <mxCell id="ExVyS3KjKUSaasKRGWtf-16" value="" style="endArrow=classic;html=1;rounded=0;exitX=0.99;exitY=0.477;exitDx=0;exitDy=0;exitPerimeter=0;entryX=0.25;entryY=0.25;entryDx=0;entryDy=0;entryPerimeter=0;" edge="1" parent="1" source="ExVyS3KjKUSaasKRGWtf-15" target="ExVyS3KjKUSaasKRGWtf-13">
          <mxGeometry width="50" height="50" relative="1" as="geometry">
            <mxPoint x="460" y="240" as="sourcePoint" />
            <mxPoint x="510" y="190" as="targetPoint" />
          </mxGeometry>
        </mxCell>
        <mxCell id="ExVyS3KjKUSaasKRGWtf-17" value="Data Asset" style="ellipse;whiteSpace=wrap;html=1;" vertex="1" parent="1">
          <mxGeometry x="175" y="120" width="90" height="50" as="geometry" />
        </mxCell>
        <mxCell id="ExVyS3KjKUSaasKRGWtf-18" value="LLM 학습 과정을 Cloud를 통해 처리" style="text;align=center;fontStyle=1;verticalAlign=middle;spacingLeft=3;spacingRight=3;strokeColor=none;rotatable=0;points=[[0,0.5],[1,0.5]];portConstraint=eastwest;html=1;" vertex="1" parent="1">
          <mxGeometry x="390" y="54" width="200" height="26" as="geometry" />
        </mxCell>
        <mxCell id="ExVyS3KjKUSaasKRGWtf-20" value="local data" style="ellipse;whiteSpace=wrap;html=1;direction=south;" vertex="1" parent="1">
          <mxGeometry x="180" y="360" width="85" height="50" as="geometry" />
        </mxCell>
        <mxCell id="ExVyS3KjKUSaasKRGWtf-21" value="Cloud인증, API 호출" style="rounded=1;whiteSpace=wrap;html=1;" vertex="1" parent="1">
          <mxGeometry x="390" y="360" width="190" height="50" as="geometry" />
        </mxCell>
        <mxCell id="ExVyS3KjKUSaasKRGWtf-24" value="API 통한 호출" style="text;align=center;fontStyle=1;verticalAlign=middle;spacingLeft=3;spacingRight=3;strokeColor=none;rotatable=0;points=[[0,0.5],[1,0.5]];portConstraint=eastwest;html=1;" vertex="1" parent="1">
          <mxGeometry x="490" y="236" width="110" height="22" as="geometry" />
        </mxCell>
        <mxCell id="ExVyS3KjKUSaasKRGWtf-25" value="" style="shape=flexArrow;endArrow=classic;startArrow=classic;html=1;rounded=0;exitX=0.5;exitY=0;exitDx=0;exitDy=0;entryX=0.55;entryY=0.95;entryDx=0;entryDy=0;entryPerimeter=0;" edge="1" parent="1" source="ExVyS3KjKUSaasKRGWtf-37" target="ExVyS3KjKUSaasKRGWtf-13">
          <mxGeometry width="100" height="100" relative="1" as="geometry">
            <mxPoint x="440" y="360" as="sourcePoint" />
            <mxPoint x="540" y="260" as="targetPoint" />
          </mxGeometry>
        </mxCell>
        <mxCell id="ExVyS3KjKUSaasKRGWtf-27" value="Data를 사용가능한 형태로 변환 및 파싱 작업&lt;div&gt;API 형태로 데이터 요청가능하도록&lt;/div&gt;" style="rounded=1;whiteSpace=wrap;html=1;" vertex="1" parent="1">
          <mxGeometry x="130" y="440" width="470" height="70" as="geometry" />
        </mxCell>
        <mxCell id="ExVyS3KjKUSaasKRGWtf-29" value="사용자 인증 단계 (사용자 수준별 교육지원)" style="rounded=1;whiteSpace=wrap;html=1;" vertex="1" parent="1">
          <mxGeometry x="130" y="520" width="470" height="60" as="geometry" />
        </mxCell>
        <mxCell id="ExVyS3KjKUSaasKRGWtf-30" value="DB" style="shape=cylinder3;whiteSpace=wrap;html=1;boundedLbl=1;backgroundOutline=1;size=15;" vertex="1" parent="1">
          <mxGeometry x="-120" y="370" width="60" height="80" as="geometry" />
        </mxCell>
        <mxCell id="ExVyS3KjKUSaasKRGWtf-31" value="" style="endArrow=classic;html=1;rounded=0;exitX=0;exitY=0.5;exitDx=0;exitDy=0;entryX=1;entryY=0;entryDx=0;entryDy=52.5;entryPerimeter=0;" edge="1" parent="1" source="ExVyS3KjKUSaasKRGWtf-29" target="ExVyS3KjKUSaasKRGWtf-30">
          <mxGeometry width="50" height="50" relative="1" as="geometry">
            <mxPoint x="300" y="460" as="sourcePoint" />
            <mxPoint x="350" y="410" as="targetPoint" />
          </mxGeometry>
        </mxCell>
        <mxCell id="ExVyS3KjKUSaasKRGWtf-32" value="&lt;span style=&quot;background-color: rgb(19, 138, 39);&quot;&gt;EX) DataManager&lt;/span&gt;" style="text;align=center;fontStyle=1;verticalAlign=middle;spacingLeft=3;spacingRight=3;strokeColor=none;rotatable=0;points=[[0,0.5],[1,0.5]];portConstraint=eastwest;html=1;" vertex="1" parent="1">
          <mxGeometry x="500" y="450" width="150" height="40" as="geometry" />
        </mxCell>
        <mxCell id="ExVyS3KjKUSaasKRGWtf-33" value="&lt;li data-start=&quot;374&quot; data-end=&quot;410&quot;&gt;&lt;strong data-start=&quot;376&quot; data-end=&quot;410&quot;&gt;AWS (Amazon SageMaker, Lambda)&lt;/strong&gt;&lt;/li&gt;&lt;li data-start=&quot;411&quot; data-end=&quot;441&quot;&gt;&lt;strong data-start=&quot;413&quot; data-end=&quot;441&quot;&gt;Google Cloud AI Platform&lt;/strong&gt;&lt;/li&gt;&lt;li data-start=&quot;442&quot; data-end=&quot;456&quot;&gt;&lt;strong data-start=&quot;444&quot; data-end=&quot;456&quot;&gt;Azure ML&lt;/strong&gt;&lt;/li&gt;" style="text;whiteSpace=wrap;html=1;" vertex="1" parent="1">
          <mxGeometry x="560" y="120" width="250" height="70" as="geometry" />
        </mxCell>
        <mxCell id="ExVyS3KjKUSaasKRGWtf-36" value="&lt;span style=&quot;text-align: left;&quot;&gt;Python + Flask + docker?&lt;/span&gt;" style="rounded=0;whiteSpace=wrap;html=1;" vertex="1" parent="1">
          <mxGeometry x="590" y="224" width="150" height="34" as="geometry" />
        </mxCell>
        <mxCell id="ExVyS3KjKUSaasKRGWtf-38" value="" style="shape=flexArrow;endArrow=classic;startArrow=classic;html=1;rounded=0;exitX=0.5;exitY=0;exitDx=0;exitDy=0;entryX=0.55;entryY=0.95;entryDx=0;entryDy=0;entryPerimeter=0;" edge="1" parent="1" source="ExVyS3KjKUSaasKRGWtf-21" target="ExVyS3KjKUSaasKRGWtf-37">
          <mxGeometry width="100" height="100" relative="1" as="geometry">
            <mxPoint x="485" y="360" as="sourcePoint" />
            <mxPoint x="486" y="176" as="targetPoint" />
          </mxGeometry>
        </mxCell>
        <mxCell id="ExVyS3KjKUSaasKRGWtf-37" value="js,c#" style="rounded=0;whiteSpace=wrap;html=1;" vertex="1" parent="1">
          <mxGeometry x="440" y="266" width="90" height="38" as="geometry" />
        </mxCell>
        <mxCell id="ExVyS3KjKUSaasKRGWtf-39" value="open source postgress" style="text;html=1;align=center;verticalAlign=middle;whiteSpace=wrap;rounded=0;" vertex="1" parent="1">
          <mxGeometry x="-120" y="330" width="160" height="30" as="geometry" />
        </mxCell>
        <mxCell id="ExVyS3KjKUSaasKRGWtf-41" value="VIew (js c# html exe...)" style="rounded=0;whiteSpace=wrap;html=1;" vertex="1" parent="1">
          <mxGeometry x="130" y="585" width="470" height="85" as="geometry" />
        </mxCell>
        <mxCell id="ExVyS3KjKUSaasKRGWtf-42" value="postgre Plugin" style="rounded=0;whiteSpace=wrap;html=1;" vertex="1" parent="1">
          <mxGeometry x="-20" y="460" width="80" height="40" as="geometry" />
        </mxCell>
      </root>
    </mxGraphModel>
  </diagram>
</mxfile>
